# xmcd
#
# Track frame offsets:
#	150
#	17807
#	30751
#	55389
#	66631
#	80489
#	103784
#	121934
#	132915
#	148083
#	164118
#	179057
#
# Disc length: 2764 seconds
# Revision: 0
# Processed by: cddbd v1.5.2PL0 Copyright (c) Steve Scherf et al.
# Submitted via: dBpowerAMP V12.0
#
DISCID=b20aca0c
DTITLE=Robbie Fulks - Upland Stories
DYEAR=2016
DGENRE=Country
TTITLE0=Alabama At Night 
TTITLE1=Baby Rocked Her Dolly
TTITLE2=Never Come Home
TTITLE3=Sarah Jane
TTITLE4=Aunt Peg's New Old Man 
TTITLE5=Needed 
TTITLE6=South Ben Soldiers On
TTITLE7=America Is A Hard Religion
TTITLE8=A Miracle
TTITLE9=Sweet As Sweet Comes
TTITLE10=Katy K
TTITLE11=Fare Thee Well Carolina Gals
EXTD=
EXTT0=
EXTT1=
EXTT2=
EXTT3=
EXTT4=
EXTT5=
EXTT6=
EXTT7=
EXTT8=
EXTT9=
EXTT10=
EXTT11=
PLAYORDER=
